<svg xmlns="http://www.w3.org/2000/svg" width="222.857" height="200.847" viewBox="0 0 222.857 200.847">
  <g id="Grupo_5984" data-name="Grupo 5984" transform="translate(392.454 -2181.467)">
    <path id="Trazado_9302" data-name="Trazado 9302" d="M1075.494,2288.275h-2.049v-37.5l-48.4-48.4v-12.742c9.217-6.572,14.8-15.072,14.8-24.362,0-20.847-27.971-37.742-62.475-37.742s-62.475,16.9-62.475,37.742c0,10.016,6.5,19.092,17.036,25.849l-56.885,56.891v48.331H873a10.181,10.181,0,0,0-10.183,10.182v11.671A10.181,10.181,0,0,0,873,2328.376h11.67a10.184,10.184,0,0,0,10.182-10.182v-11.671a10.184,10.184,0,0,0-10.182-10.182h-2.049v-45.2l52.3-52.3v37.318h-1.734a10.18,10.18,0,0,0-10.182,10.177v11.669a10.181,10.181,0,0,0,10.182,10.183h11.665a10.182,10.182,0,0,0,10.182-10.183v-11.669a10.18,10.18,0,0,0-10.182-10.177h-2.363v-39.579a93.323,93.323,0,0,0,34.886,6.433,100.941,100.941,0,0,0,17.328-1.5v65.653h-2.049a10.181,10.181,0,0,0-10.183,10.182v11.671a10.185,10.185,0,0,0,10.183,10.182h11.67a10.188,10.188,0,0,0,10.183-10.182v-11.671a10.185,10.185,0,0,0-10.183-10.182h-2.049v-67.286a77.258,77.258,0,0,0,15.2-5.681v11.316l48.4,48.4v34.365h-2.049a10.181,10.181,0,0,0-10.183,10.182v11.671a10.181,10.181,0,0,0,10.183,10.182h2.049v.354h7.572v-.354h2.049a10.184,10.184,0,0,0,10.182-10.182v-11.671A10.184,10.184,0,0,0,1075.494,2288.275Z" transform="translate(-1255.274 53.938)" fill="#09ba7c"/>
    <circle id="Elipse_64" data-name="Elipse 64" cx="23.113" cy="23.113" r="23.113" transform="translate(-301.013 2196.096)" fill="#fff"/>
  </g>
</svg>
