<svg xmlns="http://www.w3.org/2000/svg" width="1239.774" height="200.847" viewBox="0 0 1239.774 200.847">
  <g id="Grupo_5983" data-name="Grupo 5983" transform="translate(-862.82 -2127.529)">
    <path id="Trazado_9287" data-name="Trazado 9287" d="M1075.494,2288.275h-2.049v-37.5l-48.4-48.4v-12.742c9.217-6.572,14.8-15.072,14.8-24.362,0-20.847-27.971-37.742-62.475-37.742s-62.475,16.9-62.475,37.742c0,10.016,6.5,19.092,17.036,25.849l-56.885,56.891v48.331H873a10.181,10.181,0,0,0-10.183,10.182v11.671A10.181,10.181,0,0,0,873,2328.376h11.67a10.184,10.184,0,0,0,10.182-10.182v-11.671a10.184,10.184,0,0,0-10.182-10.182h-2.049v-45.2l52.3-52.3v37.318h-1.734a10.18,10.18,0,0,0-10.182,10.177v11.669a10.181,10.181,0,0,0,10.182,10.183h11.665a10.182,10.182,0,0,0,10.182-10.183v-11.669a10.18,10.18,0,0,0-10.182-10.177h-2.363v-39.579a93.323,93.323,0,0,0,34.886,6.433,100.941,100.941,0,0,0,17.328-1.5v65.653h-2.049a10.181,10.181,0,0,0-10.183,10.182v11.671a10.185,10.185,0,0,0,10.183,10.182h11.67a10.188,10.188,0,0,0,10.183-10.182v-11.671a10.185,10.185,0,0,0-10.183-10.182h-2.049v-67.286a77.258,77.258,0,0,0,15.2-5.681v11.316l48.4,48.4v34.365h-2.049a10.181,10.181,0,0,0-10.183,10.182v11.671a10.181,10.181,0,0,0,10.183,10.182h2.049v.354h7.572v-.354h2.049a10.184,10.184,0,0,0,10.182-10.182v-11.671A10.184,10.184,0,0,0,1075.494,2288.275Z" transform="translate(0 0)" fill="#09ba7c"/>
    <g id="Grupo_5925" data-name="Grupo 5925" transform="translate(1150.457 2140.378)">
      <path id="Trazado_9288" data-name="Trazado 9288" d="M957.871,2275.222c39.9,0,45.854-32.226,45.854-51.435v-87.263a5.01,5.01,0,0,0-5-5H975.569a5.01,5.01,0,0,0-5,5v87.459c0,10.615-1.7,21.466-14.292,21.466a14.352,14.352,0,0,1-13.1-8.409,4.741,4.741,0,0,0-4.271-2.532,5.237,5.237,0,0,0-1.667.275l-19.736,6.669a5.091,5.091,0,0,0-2.992,2.7,4.8,4.8,0,0,0-.1,3.846C921.4,2265.045,937.635,2275.222,957.871,2275.222Z" transform="translate(-914.063 -2121.958)" fill="#193b52"/>
      <path id="Trazado_9289" data-name="Trazado 9289" d="M1006.1,2237.064h20.371a5.009,5.009,0,0,0,5-5.007v-88.083a5.01,5.01,0,0,0-5-5h-21.561a5.011,5.011,0,0,0-5.007,5v50.79a19.6,19.6,0,0,1-6.029,14.11,17.621,17.621,0,0,1-13.034,4.968c-9.621-.455-14.3-7.533-14.3-21.639v-48.229a5.011,5.011,0,0,0-5.007-5H939.776a5.006,5.006,0,0,0-5,5v55.8c0,37.188,27.168,40.085,35.5,40.085,14.443,0,25.17-8.157,29.391-16.234l.151-.3h1.28v8.734A5.009,5.009,0,0,0,1006.1,2237.064Z" transform="translate(-818.511 -2087.585)" fill="#193b52"/>
      <path id="Trazado_9290" data-name="Trazado 9290" d="M1088.416,2239.356h21.561a5.01,5.01,0,0,0,5-5.007v-55.79c0-29.553-18.338-40.083-35.5-40.083-13.685,0-24.187,5.607-31.209,16.677l-.511.8-.443-.849c-5.641-10.878-15.807-16.631-29.385-16.631-14.965,0-24.9,8.4-29.195,16.244l-.157.292H987.3v-8.746a5.01,5.01,0,0,0-5-5H961.742a5.006,5.006,0,0,0-5,5v88.083a5.006,5.006,0,0,0,5,5.007h21.751a5.011,5.011,0,0,0,5.007-5.007v-48.223c0-13.073,6.786-21.858,16.885-21.858,9.469,0,14.69,6.775,14.69,19.074v51.007a5.009,5.009,0,0,0,5,5.007h21.561a5.01,5.01,0,0,0,5-5.007v-51.979a18.529,18.529,0,0,1,5.782-13.432,16.662,16.662,0,0,1,11.507-4.665c.315,0,.635.006.943.021,12.136.7,13.539,12.568,13.539,21.438v48.616A5.011,5.011,0,0,0,1088.416,2239.356Z" transform="translate(-717.177 -2089.877)" fill="#193b52"/>
      <g id="Grupo_5923" data-name="Grupo 5923" transform="translate(424.009 3.8)">
        <path id="Trazado_9291" data-name="Trazado 9291" d="M1033.665,2133.958a5.491,5.491,0,0,0-5.159-3.464h-18.591a5.6,5.6,0,0,0-4.519,2.313l-14.146,19.585a5.572,5.572,0,0,0,4.519,8.84h12.883a5.545,5.545,0,0,0,3.912-1.6l19.854-19.585A5.482,5.482,0,0,0,1033.665,2133.958Z" transform="translate(-986.939 -2130.494)" fill="#193b52"/>
        <rect id="Rect치ngulo_2401" data-name="Rect치ngulo 2401" width="31.563" height="98.088" rx="0.891" transform="translate(0 47.589)" fill="#193b52"/>
      </g>
      <path id="Trazado_9292" data-name="Trazado 9292" d="M1086.869,2226.725l-11-13.415a4.914,4.914,0,0,0-6.562-1.016,26.322,26.322,0,0,1-14.348,4.187c-13.825,0-23.856-10.873-23.856-25.844,0-14.853,10.087-26.045,23.458-26.045a24.728,24.728,0,0,1,13.882,4.463,5.069,5.069,0,0,0,6.82-.7l11.445-13.259a4.884,4.884,0,0,0,1.173-3.868,5.222,5.222,0,0,0-2.229-3.613c-8.251-5.682-20.4-9.212-31.692-9.212-32.276,0-54.819,21.476-54.819,52.23s22.627,52.232,55.021,52.232c12.007,0,23.615-3.272,31.849-8.981a4.671,4.671,0,0,0,1.965-3.222A5.133,5.133,0,0,0,1086.869,2226.725Z" transform="translate(-521.557 -2090.2)" fill="#193b52"/>
      <path id="Trazado_9293" data-name="Trazado 9293" d="M1087.887,2279.3h21.757a5.006,5.006,0,0,0,5-5.007V2218.5c0-37.187-27.325-40.083-35.7-40.083-14.55,0-24.176,8.109-28,15.054l-.157.286h-1.274v-58.938a5.009,5.009,0,0,0-5-5h-21.561a5.009,5.009,0,0,0-5,5v139.472a5.01,5.01,0,0,0,5,5.007h21.561a5.009,5.009,0,0,0,5-5.007V2226.27c0-12.954,7.343-21.666,18.277-21.666,10.154,0,15.088,7.022,15.088,21.465v48.223A5.011,5.011,0,0,0,1087.887,2279.3Z" transform="translate(-434.796 -2129.818)" fill="#193b52"/>
      <g id="Grupo_5924" data-name="Grupo 5924" transform="translate(703.661 1.795)">
        <path id="Trazado_9294" data-name="Trazado 9294" d="M1057.6,2164.891c10.188,0,18.17-7.635,18.17-17.38,0-9.582-8.15-17.373-18.17-17.373s-18.175,7.791-18.175,17.373S1047.576,2164.891,1057.6,2164.891Z" transform="translate(-1039.42 -2130.138)" fill="#193b52"/>
        <rect id="Rect치ngulo_2402" data-name="Rect치ngulo 2402" width="31.567" height="98.088" rx="0.891" transform="translate(2.39 49.594)" fill="#193b52"/>
      </g>
      <path id="Trazado_9295" data-name="Trazado 9295" d="M1137.116,2226.725l-11-13.415a4.913,4.913,0,0,0-6.562-1.016,26.322,26.322,0,0,1-14.348,4.187c-13.819,0-23.85-10.873-23.85-25.844,0-14.853,10.081-26.045,23.452-26.045a24.745,24.745,0,0,1,13.887,4.463,5.062,5.062,0,0,0,6.814-.7l11.451-13.259a4.877,4.877,0,0,0,1.167-3.868,5.2,5.2,0,0,0-2.223-3.613c-8.251-5.682-20.4-9.212-31.692-9.212-32.276,0-54.819,21.476-54.819,52.23s22.622,52.232,55.021,52.232c12,0,23.609-3.272,31.85-8.981a4.691,4.691,0,0,0,1.959-3.222A5.134,5.134,0,0,0,1137.116,2226.725Z" transform="translate(-289.756 -2090.2)" fill="#193b52"/>
      <path id="Trazado_9296" data-name="Trazado 9296" d="M1136.762,2239.68h18.771a5.006,5.006,0,0,0,5-5.007v-44.435c0-36.816-13.057-51.832-45.063-51.832-14.252,0-28.543,4.614-39.208,12.657a5,5,0,0,0-1.947,3.542,5.048,5.048,0,0,0,1.341,3.884l9,9.656a5.061,5.061,0,0,0,6.686.566,36.83,36.83,0,0,1,20.943-7.105c11.569,0,18.479,5.563,18.479,14.885v2.145h-.55c-42.521,0-63.188,10.767-63.188,32.911,0,14.084,9.3,30.52,35.5,30.52,12.08,0,22.919-4.974,27.611-12.681l.163-.265h1.453v5.552A5.011,5.011,0,0,0,1136.762,2239.68Zm-26.068-18.417c-6.781,0-14.7-2.807-14.7-10.709,0-12.63,17.71-14.1,31.024-14.1h4.732v3.94C1131.754,2213.461,1123.884,2221.263,1110.693,2221.263Z" transform="translate(-208.397 -2090.2)" fill="#193b52"/>
    </g>
    <circle id="Elipse_60" data-name="Elipse 60" cx="23.113" cy="23.113" r="23.113" transform="translate(954.261 2142.158)" fill="#fff"/>
  </g>
</svg>
